<svg width="273" height="79" viewBox="0 0 273 79" fill="none" xmlns="http://www.w3.org/2000/svg">
<mask id="mask0_2251_51060" style="mask-type:luminance" maskUnits="userSpaceOnUse" x="4" y="0" width="79" height="79">
<path d="M4.54688 0H82.8907V78.2251H4.54688V0Z" fill="white"/>
</mask>
<g mask="url(#mask0_2251_51060)">
<path fill-rule="evenodd" clip-rule="evenodd" d="M43.6114 19.6168C32.8782 19.6168 24.1819 28.3359 24.1819 39.0646C24.1819 49.775 32.8782 58.4941 43.6114 58.4941C48.4665 58.4941 53.075 56.6671 56.6056 53.4928C61.6296 48.1125 69.4946 55.6715 64.0138 60.796C58.5741 65.8841 51.3303 68.8711 43.6114 68.8711C41.0583 68.8711 38.9801 70.9493 38.9801 73.4978C38.9801 76.0327 41.0583 78.1063 43.6114 78.1063C65.1556 78.1063 82.6532 60.6088 82.6532 39.0646C82.6532 17.4975 65.1556 0 43.6114 0C22.0444 0 4.54688 17.4975 4.54688 39.0463V39.0646C4.54688 41.5949 6.62045 43.673 9.15533 43.673C11.7085 43.673 13.7821 41.5949 13.7821 39.0646C13.7821 22.5856 27.1279 9.23975 43.6114 9.23975C59.9032 9.23975 73.1668 22.3344 73.418 38.5896C73.4591 42.0105 72.2944 44.2531 68.0833 44.2531H39.8342C36.9705 44.2531 34.6457 41.91 34.6457 39.0646C34.6457 36.2008 36.9705 33.8532 39.8342 33.8532H62.333C60.0311 25.5315 52.3899 19.6168 43.6114 19.6168Z" fill="#00BF63"/>
</g>
<mask id="mask1_2251_51060" style="mask-type:luminance" maskUnits="userSpaceOnUse" x="0" y="42" width="31" height="37">
<path d="M0 42.6318H30.1902V78.3074H0V42.6318Z" fill="white"/>
</mask>
<g mask="url(#mask1_2251_51060)">
<path fill-rule="evenodd" clip-rule="evenodd" d="M17.0353 51.0585V46.1486H21.9452V51.0585H17.0353ZM-13.6802 78.4353V42.3897H-22.8469V42.3623H-37.0879C-47.0493 42.3623 -56.0515 46.4044 -62.5828 52.9403C-69.1141 59.4716 -73.1562 68.4739 -73.1562 78.4353H-57.5542C-57.5542 88.4012 -53.5121 97.3989 -46.9808 103.935C-40.4677 110.466 -31.4472 114.508 -21.4812 114.508C-11.5198 114.508 -2.51758 110.466 4.01374 103.935C10.5496 97.3989 14.5917 88.4012 14.5917 78.4353V62.8789H5.21495V53.5249H14.5643V62.8789H30.171V78.4353H-1.01492C-1.01492 84.0988 -3.29402 89.2005 -7.00729 92.9138C-10.7205 96.627 -15.8177 98.9061 -21.4812 98.9061C-27.1447 98.9061 -32.2465 96.627 -35.9597 92.9138C-39.673 89.2005 -41.9521 84.0988 -41.9521 78.4353H-57.5542C-57.5542 72.7717 -55.2522 67.6746 -51.5618 63.9613C-47.8485 60.2481 -42.7514 57.9689 -37.0879 57.9689V57.9461H-29.2823V78.4353H-13.6802Z" fill="#00BF63"/>
</g>
<path d="M99.8247 34.8003H107.827V38.8378H95.4766V18.7598H107.516V22.779H99.8247V26.7252H106.767V30.6714H99.8247V34.8003Z" fill="#00BF63"/>
<path d="M122.598 17.7559H126.781V38.8388H123.694L123.2 37.5416C122.552 38.1034 121.817 38.5373 120.99 38.8388C120.172 39.1402 119.295 39.2955 118.359 39.2955C116.788 39.2955 115.386 38.9347 114.157 38.2176C112.924 37.5005 111.956 36.5277 111.252 35.2945C110.558 34.0659 110.211 32.6637 110.211 31.0925C110.211 29.5214 110.558 28.1238 111.252 26.8906C111.956 25.6619 112.924 24.6937 114.157 23.9857C115.386 23.2824 116.788 22.9261 118.359 22.9261C119.136 22.9261 119.885 23.0357 120.606 23.255C121.323 23.4742 121.986 23.7848 122.598 24.1867V17.7559ZM118.67 35.331C119.496 35.331 120.223 35.1483 120.844 34.7829C121.474 34.4084 121.976 33.9015 122.342 33.2666C122.716 32.6226 122.908 31.8964 122.908 31.0925C122.908 30.2887 122.716 29.5716 122.342 28.9367C121.976 28.2927 121.474 27.7858 120.844 27.4204C120.223 27.0459 119.496 26.854 118.67 26.854C117.866 26.854 117.144 27.0459 116.514 27.4204C115.893 27.7858 115.39 28.2927 115.016 28.9367C114.637 29.5716 114.449 30.2887 114.449 31.0925C114.449 31.8964 114.637 32.6226 115.016 33.2666C115.39 33.9015 115.893 34.4084 116.514 34.7829C117.144 35.1483 117.866 35.331 118.67 35.331Z" fill="#00BF63"/>
<path d="M137.914 39.2766C136.453 39.2766 135.174 38.9843 134.078 38.3997C132.982 37.8151 132.128 37.0067 131.52 35.9699C130.922 34.9239 130.625 33.6999 130.625 32.2977V23.3457H134.809V31.8044C134.809 32.9143 135.083 33.7775 135.631 34.3987C136.179 35.0199 136.937 35.3304 137.914 35.3304C138.887 35.3304 139.641 35.0199 140.18 34.3987C140.714 33.7684 140.984 32.9006 140.984 31.8044V23.3457H145.167V32.2977C145.167 33.6999 144.861 34.9239 144.254 35.9699C143.656 37.0067 142.811 37.8151 141.715 38.3997C140.628 38.9843 139.362 39.2766 137.914 39.2766Z" fill="#00BF63"/>
<path d="M158.476 39.2763C157.001 39.2763 155.63 39.0114 154.365 38.4907C153.096 37.9563 151.995 37.221 151.059 36.2801C150.131 35.3301 149.405 34.2248 148.885 32.9551C148.373 31.6762 148.117 30.3015 148.117 28.8262C148.117 27.3418 148.373 25.9579 148.885 24.679C149.405 23.3911 150.131 22.2766 151.059 21.3357C151.995 20.3857 153.096 19.6504 154.365 19.1251C155.63 18.5908 157.001 18.3213 158.476 18.3213C160.093 18.3213 161.582 18.6593 162.934 19.3261C164.295 19.9975 165.437 20.9338 166.35 22.1396C167.273 23.3454 167.889 24.743 168.195 26.3233H163.829C163.427 25.1449 162.742 24.204 161.783 23.5098C160.833 22.8156 159.727 22.4684 158.476 22.4684C157.343 22.4684 156.325 22.7516 155.425 23.3088C154.521 23.8706 153.808 24.6334 153.287 25.5925C152.762 26.5425 152.502 27.6204 152.502 28.8262C152.502 30.032 152.762 31.1099 153.287 32.0599C153.808 33.0008 154.521 33.7498 155.425 34.307C156.325 34.8551 157.343 35.1291 158.476 35.1291C159.791 35.1291 160.924 34.7592 161.874 34.0147C162.833 33.2748 163.5 32.2609 163.865 30.982H168.25C167.944 32.6399 167.337 34.0969 166.423 35.3484C165.519 36.5907 164.382 37.559 163.007 38.2532C161.641 38.9338 160.129 39.2763 158.476 39.2763Z" fill="#00BF63"/>
<path d="M178.43 39.2759C176.831 39.2759 175.402 38.9151 174.137 38.198C172.867 37.481 171.871 36.5081 171.14 35.2749C170.419 34.0326 170.062 32.6396 170.062 31.0912C170.062 29.5201 170.419 28.1225 171.14 26.8893C171.871 25.6606 172.867 24.6924 174.137 23.9844C175.402 23.2811 176.831 22.9248 178.43 22.9248C180.024 22.9248 181.449 23.2811 182.705 23.9844C183.97 24.6924 184.961 25.6606 185.683 26.8893C186.414 28.1225 186.779 29.5201 186.779 31.0912C186.779 32.6396 186.414 34.0326 185.683 35.2749C184.961 36.5081 183.97 37.481 182.705 38.198C181.449 38.9151 180.024 39.2759 178.43 39.2759ZM178.43 35.3297C179.636 35.3297 180.622 34.9415 181.39 34.1605C182.157 33.384 182.541 32.361 182.541 31.0912C182.541 29.8261 182.157 28.803 181.39 28.022C180.622 27.2455 179.636 26.8527 178.43 26.8527C177.21 26.8527 176.219 27.2455 175.452 28.022C174.685 28.803 174.301 29.8261 174.301 31.0912C174.301 32.361 174.685 33.384 175.452 34.1605C176.219 34.9415 177.21 35.3297 178.43 35.3297Z" fill="#00BF63"/>
<path d="M198.644 22.9805C200.407 22.9805 201.805 23.5742 202.828 24.7526C203.851 25.9218 204.363 27.493 204.363 29.4661V38.8383H200.179V30.1238C200.179 27.8127 199.275 26.6526 197.475 26.6526C196.402 26.6526 195.557 27.018 194.936 27.7488C194.315 28.4704 194.004 29.4478 194.004 30.6902V38.8383H189.82V23.3459H192.689L193.511 25.2641C194.095 24.5608 194.831 24.0036 195.721 23.6016C196.621 23.1906 197.594 22.9805 198.644 22.9805Z" fill="#00BF63"/>
<path d="M217.019 22.9805C218.782 22.9805 220.18 23.5742 221.203 24.7526C222.226 25.9218 222.738 27.493 222.738 29.4661V38.8383H218.554V30.1238C218.554 27.8127 217.65 26.6526 215.85 26.6526C214.777 26.6526 213.932 27.018 213.311 27.7488C212.69 28.4704 212.379 29.4478 212.379 30.6902V38.8383H208.195V23.3459H211.064L211.886 25.2641C212.47 24.5608 213.206 24.0036 214.096 23.6016C214.996 23.1906 215.969 22.9805 217.019 22.9805Z" fill="#00BF63"/>
<path d="M241.634 31.0364C241.634 31.4384 241.602 31.8494 241.543 32.2605H229.832C230.001 33.3201 230.421 34.1331 231.093 34.6903C231.76 35.2521 232.609 35.5307 233.632 35.5307C234.349 35.5307 234.993 35.38 235.569 35.074C236.14 34.7588 236.583 34.3204 236.903 33.7586H241.305C240.73 35.4394 239.757 36.7822 238.382 37.7778C237.003 38.7781 235.423 39.2759 233.632 39.2759C232.098 39.2759 230.718 38.9151 229.503 38.198C228.298 37.481 227.338 36.5081 226.635 35.2749C225.941 34.0326 225.594 32.6396 225.594 31.0912C225.594 29.5475 225.941 28.159 226.635 26.9258C227.338 25.6835 228.298 24.7106 229.503 24.0027C230.718 23.2856 232.098 22.9248 233.632 22.9248C235.213 22.9248 236.61 23.2993 237.816 24.0392C239.022 24.77 239.958 25.7474 240.629 26.9623C241.296 28.1818 241.634 29.5383 241.634 31.0364ZM233.632 26.4691C232.691 26.4691 231.901 26.734 231.257 27.2547C230.609 27.7662 230.179 28.4787 229.96 29.3922H237.432C236.82 27.4465 235.555 26.4691 233.632 26.4691Z" fill="#00BF63"/>
<path d="M251.828 39.2759C250.28 39.2759 248.887 38.9105 247.644 38.1798C246.402 37.449 245.42 36.4624 244.703 35.2201C243.981 33.9778 243.625 32.5848 243.625 31.0364C243.625 29.4927 243.981 28.1088 244.703 26.8893C245.42 25.6606 246.402 24.6924 247.644 23.9844C248.887 23.2811 250.293 22.9248 251.865 22.9248C253.189 22.9248 254.404 23.1897 255.5 23.7104C256.605 24.2356 257.528 24.9801 258.259 25.9393C258.999 26.8893 259.492 27.9991 259.739 29.2643H255.591C255.235 28.497 254.733 27.9078 254.075 27.4922C253.417 27.0674 252.668 26.8527 251.828 26.8527C251.083 26.8527 250.408 27.0446 249.8 27.4191C249.202 27.7845 248.727 28.2869 248.375 28.9172C248.032 29.552 247.864 30.2691 247.864 31.073C247.864 31.8677 248.032 32.5848 248.375 33.2288C248.727 33.8773 249.202 34.3889 249.8 34.7634C250.408 35.1425 251.083 35.3297 251.828 35.3297C252.691 35.3297 253.44 35.1105 254.075 34.672C254.719 34.2244 255.226 33.5759 255.591 32.7355H259.793C259.547 34.028 259.054 35.1653 258.314 36.1519C257.569 37.1384 256.637 37.9057 255.518 38.4538C254.409 39.0019 253.18 39.2759 251.828 39.2759Z" fill="#00BF63"/>
<path d="M270.114 35.1107H272.014V38.8376H269.055C267.36 38.8376 266.022 38.3443 265.035 37.3578C264.049 36.3712 263.556 35.0193 263.556 33.302V26.7067H260.742V25.8115L266.881 19.3076H267.648V23.3452H271.923V26.7067H267.739V32.7539C267.739 33.4984 267.945 34.0784 268.361 34.4895C268.772 34.9051 269.356 35.1107 270.114 35.1107Z" fill="#00BF63"/>
<path d="M108.82 68.4267L107.414 64.6084H99.4116L98.0231 68.4267H93.4375L101.293 48.3486H105.404L113.516 68.4267H108.82ZM103.394 53.6468L100.782 60.8266H106.025L103.394 53.6468Z" fill="#00BF63"/>
<path d="M125.243 53.1349V56.606H121.333V68.4264H117.149V56.606H114.445V53.1349H117.167V51.7281C117.167 50.2574 117.574 49.079 118.392 48.2021C119.218 47.3252 120.447 46.8867 122.082 46.8867H125.206V50.1752H122.904C121.78 50.1752 121.223 50.737 121.223 51.856V53.1349H125.243Z" fill="#00BF63"/>
<path d="M135.583 52.8428H136.971V56.8072H135.162C133.966 56.8072 133.116 57.0904 132.605 57.6476C132.102 58.1957 131.856 59.1046 131.856 60.3698V68.4266H127.672V52.9341H130.357L131.107 54.8341C132.166 53.5096 133.655 52.8428 135.583 52.8428Z" fill="#00BF63"/>
<path d="M139.367 50.8699V46.9785H143.551V50.8699H139.367ZM139.367 68.4268V52.9343H143.551V68.4268H139.367Z" fill="#00BF63"/>
<path d="M154.758 68.8648C153.209 68.8648 151.816 68.4994 150.574 67.7686C149.332 67.0379 148.35 66.0513 147.633 64.809C146.911 63.5667 146.555 62.1736 146.555 60.6253C146.555 59.0815 146.911 57.6976 147.633 56.4781C148.35 55.2495 149.332 54.2812 150.574 53.5733C151.816 52.8699 153.223 52.5137 154.794 52.5137C156.119 52.5137 157.334 52.7786 158.43 53.2993C159.535 53.8245 160.458 54.569 161.188 55.5281C161.928 56.4781 162.422 57.588 162.668 58.8532H158.521C158.165 58.0858 157.662 57.4967 157.005 57.081C156.347 56.6563 155.598 56.4416 154.758 56.4416C154.013 56.4416 153.337 56.6334 152.73 57.0079C152.131 57.3733 151.656 57.8757 151.305 58.506C150.962 59.1409 150.793 59.858 150.793 60.6618C150.793 61.4565 150.962 62.1736 151.305 62.8176C151.656 63.4662 152.131 63.9777 152.73 64.3523C153.337 64.7313 154.013 64.9186 154.758 64.9186C155.621 64.9186 156.37 64.6994 157.005 64.2609C157.649 63.8133 158.156 63.1647 158.521 62.3243H162.723C162.476 63.6169 161.983 64.7542 161.243 65.7407C160.499 66.7273 159.567 67.4946 158.448 68.0427C157.338 68.5908 156.11 68.8648 154.758 68.8648Z" fill="#00BF63"/>
<path d="M178.116 52.9166H181.24V68.3908H177.952L177.604 67.0206C176.933 67.596 176.17 68.0436 175.321 68.3725C174.467 68.7013 173.553 68.8658 172.58 68.8658C171.032 68.8658 169.644 68.505 168.415 67.7879C167.195 67.0708 166.232 66.098 165.528 64.8648C164.82 63.6225 164.469 62.2248 164.469 60.6628C164.469 59.1053 164.82 57.7123 165.528 56.4791C166.232 55.2505 167.195 54.2822 168.415 53.5743C169.644 52.8709 171.032 52.5146 172.58 52.5146C173.576 52.5146 174.503 52.6882 175.357 53.0262C176.221 53.355 176.988 53.8118 177.659 54.3964L178.116 52.9166ZM172.927 64.9013C173.731 64.9013 174.448 64.7186 175.083 64.3532C175.727 63.9878 176.234 63.49 176.6 62.8551C176.965 62.2111 177.148 61.4804 177.148 60.6628C177.148 59.859 176.965 59.1373 176.6 58.4887C176.234 57.8447 175.727 57.3378 175.083 56.9724C174.448 56.5979 173.731 56.406 172.927 56.406C172.11 56.406 171.384 56.5979 170.753 56.9724C170.119 57.3378 169.621 57.8447 169.255 58.4887C168.89 59.1373 168.707 59.859 168.707 60.6628C168.707 61.4804 168.89 62.2066 169.255 62.8369C169.621 63.4717 170.119 63.9787 170.753 64.3532C171.384 64.7186 172.11 64.9013 172.927 64.9013Z" fill="#00BF63"/>
</svg>
