<svg width="147" height="43" viewBox="0 0 147 43" fill="none" xmlns="http://www.w3.org/2000/svg">
<mask id="mask0_2353_49730" style="mask-type:luminance" maskUnits="userSpaceOnUse" x="2" y="0" width="43" height="43">
<path d="M2.44531 0H44.7833V42.2738H2.44531V0Z" fill="white"/>
</mask>
<g mask="url(#mask0_2353_49730)">
<path fill-rule="evenodd" clip-rule="evenodd" d="M23.5563 10.6012C17.7559 10.6012 13.0563 15.3131 13.0563 21.111C13.0563 26.899 17.7559 31.6109 23.5563 31.6109C26.18 31.6109 28.6705 30.6236 30.5785 28.9082C33.2936 26.0006 37.5439 30.0856 34.582 32.8549C31.6423 35.6046 27.7276 37.2188 23.5563 37.2188C22.1765 37.2188 21.0535 38.3419 21.0535 39.7192C21.0535 41.089 22.1765 42.2096 23.5563 42.2096C35.1991 42.2096 44.6549 32.7537 44.6549 21.111C44.6549 9.45588 35.1991 0 23.5563 0C11.9012 0 2.44531 9.45588 2.44531 21.1011V21.111C2.44531 22.4784 3.5659 23.6015 4.93578 23.6015C6.31554 23.6015 7.43612 22.4784 7.43612 21.111C7.43612 12.2055 14.6484 4.99328 23.5563 4.99328C32.3606 4.99328 39.5284 12.0698 39.6641 20.8543C39.6863 22.703 39.0569 23.9149 36.7812 23.9149H21.515C19.9675 23.9149 18.7111 22.6487 18.7111 21.111C18.7111 19.5634 19.9675 18.2947 21.515 18.2947H33.6737C32.4297 13.7975 28.3003 10.6012 23.5563 10.6012Z" fill="white"/>
</g>
<mask id="mask1_2353_49730" style="mask-type:luminance" maskUnits="userSpaceOnUse" x="-1" y="23" width="18" height="20">
<path d="M-0.00390625 23.0391H16.3113V42.3186H-0.00390625V23.0391Z" fill="white"/>
</mask>
<g mask="url(#mask1_2353_49730)">
<path fill-rule="evenodd" clip-rule="evenodd" d="M9.19765 27.5941V24.9407H11.851V27.5941H9.19765ZM-7.40136 42.3888V22.9093H-12.3551V22.8945H-20.0512C-25.4344 22.8945 -30.2994 25.0789 -33.829 28.611C-37.3586 32.1406 -39.543 37.0055 -39.543 42.3888H-31.1114C-31.1114 47.7745 -28.927 52.637 -25.3974 56.1691C-21.8777 59.6987 -17.0029 61.8831 -11.6171 61.8831C-6.23387 61.8831 -1.36894 59.6987 2.16066 56.1691C5.69273 52.637 7.87714 47.7745 7.87714 42.3888V33.9819H2.80981V28.9269H7.86233V33.9819H16.2964V42.3888H-0.556885C-0.556885 45.4494 -1.78855 48.2065 -3.79524 50.2132C-5.80193 52.2199 -8.5565 53.4515 -11.6171 53.4515C-14.6778 53.4515 -17.4348 52.2199 -19.4415 50.2132C-21.4482 48.2065 -22.6799 45.4494 -22.6799 42.3888H-31.1114C-31.1114 39.3282 -29.8674 36.5736 -27.8731 34.5669C-25.8664 32.5602 -23.1118 31.3286 -20.0512 31.3286V31.3162H-15.8329V42.3888H-7.40136Z" fill="white"/>
</g>
<path d="M53.9513 18.8072H58.2757V20.9891H51.6016V10.1387H58.1079V12.3107H53.9513V14.4433H57.7031V16.5759H53.9513V18.8072Z" fill="white"/>
<path d="M66.2408 9.5957H68.5017V20.9892H66.8332L66.5666 20.2882C66.2161 20.5918 65.8187 20.8263 65.372 20.9892C64.9301 21.1521 64.4562 21.236 63.9502 21.236C63.1012 21.236 62.3434 21.041 61.6794 20.6535C61.013 20.266 60.4897 19.7402 60.1096 19.0738C59.7345 18.4098 59.5469 17.6521 59.5469 16.803C59.5469 15.9539 59.7345 15.1986 60.1096 14.5322C60.4897 13.8683 61.013 13.345 61.6794 12.9624C62.3434 12.5823 63.1012 12.3898 63.9502 12.3898C64.3698 12.3898 64.7746 12.449 65.1646 12.5675C65.5521 12.686 65.91 12.8538 66.2408 13.071V9.5957ZM64.1181 19.0935C64.5648 19.0935 64.9573 18.9948 65.293 18.7974C65.6336 18.595 65.9051 18.321 66.1026 17.9779C66.305 17.6299 66.4086 17.2374 66.4086 16.803C66.4086 16.3686 66.305 15.9811 66.1026 15.638C65.9051 15.29 65.6336 15.016 65.293 14.8185C64.9573 14.6161 64.5648 14.5125 64.1181 14.5125C63.6837 14.5125 63.2937 14.6161 62.9531 14.8185C62.6174 15.016 62.3459 15.29 62.1435 15.638C61.9386 15.9811 61.8374 16.3686 61.8374 16.803C61.8374 17.2374 61.9386 17.6299 62.1435 17.9779C62.3459 18.321 62.6174 18.595 62.9531 18.7974C63.2937 18.9948 63.6837 19.0935 64.1181 19.0935Z" fill="white"/>
<path d="M74.5214 21.2245C73.7315 21.2245 73.0404 21.0665 72.448 20.7506C71.8557 20.4347 71.3941 19.9978 71.0658 19.4375C70.7425 18.8723 70.582 18.2108 70.582 17.453V12.6152H72.843V17.1864C72.843 17.7862 72.991 18.2527 73.2872 18.5884C73.5834 18.9241 73.9932 19.0919 74.5214 19.0919C75.0471 19.0919 75.4544 18.9241 75.7456 18.5884C76.0344 18.2478 76.18 17.7788 76.18 17.1864V12.6152H78.441V17.453C78.441 18.2108 78.2756 18.8723 77.9473 19.4375C77.624 19.9978 77.1673 20.4347 76.575 20.7506C75.9875 21.0665 75.3038 21.2245 74.5214 21.2245Z" fill="white"/>
<path d="M85.6293 21.2267C84.832 21.2267 84.0915 21.0835 83.4078 20.8022C82.7216 20.5134 82.1268 20.116 81.6208 19.6075C81.1198 19.0941 80.7273 18.4968 80.4459 17.8106C80.1695 17.1195 80.0312 16.3766 80.0312 15.5793C80.0312 14.7771 80.1695 14.0293 80.4459 13.3382C80.7273 12.6421 81.1198 12.0399 81.6208 11.5314C82.1268 11.018 82.7216 10.6206 83.4078 10.3368C84.0915 10.048 84.832 9.90234 85.6293 9.90234C86.503 9.90234 87.3077 10.085 88.0383 10.4454C88.7738 10.8082 89.3909 11.3142 89.8845 11.9658C90.3831 12.6174 90.7163 13.3727 90.8817 14.2267H88.522C88.3048 13.5899 87.9346 13.0815 87.4163 12.7063C86.9029 12.3311 86.3056 12.1435 85.6293 12.1435C85.0171 12.1435 84.4667 12.2966 83.9805 12.5977C83.4917 12.9013 83.1067 13.3135 82.8253 13.8318C82.5415 14.3452 82.4008 14.9277 82.4008 15.5793C82.4008 16.2309 82.5415 16.8135 82.8253 17.3269C83.1067 17.8353 83.4917 18.2401 83.9805 18.5412C84.4667 18.8374 85.0171 18.9855 85.6293 18.9855C86.3401 18.9855 86.9522 18.7856 87.4656 18.3833C87.984 17.9834 88.3443 17.4355 88.5418 16.7443H90.9113C90.7459 17.6403 90.4177 18.4277 89.924 19.104C89.4353 19.7754 88.8207 20.2986 88.0778 20.6738C87.3398 21.0416 86.5228 21.2267 85.6293 21.2267Z" fill="white"/>
<path d="M96.4164 21.225C95.5525 21.225 94.7799 21.03 94.0962 20.6425C93.41 20.255 92.872 19.7293 92.477 19.0628C92.0871 18.3915 91.8945 17.6386 91.8945 16.8019C91.8945 15.9528 92.0871 15.1975 92.477 14.5311C92.872 13.8672 93.41 13.3439 94.0962 12.9613C94.7799 12.5812 95.5525 12.3887 96.4164 12.3887C97.2778 12.3887 98.0479 12.5812 98.7267 12.9613C99.4104 13.3439 99.946 13.8672 100.336 14.5311C100.731 15.1975 100.928 15.9528 100.928 16.8019C100.928 17.6386 100.731 18.3915 100.336 19.0628C99.946 19.7293 99.4104 20.255 98.7267 20.6425C98.0479 21.03 97.2778 21.225 96.4164 21.225ZM96.4164 19.0925C97.068 19.0925 97.6011 18.8827 98.0158 18.4606C98.4305 18.041 98.6378 17.4881 98.6378 16.8019C98.6378 16.1182 98.4305 15.5653 98.0158 15.1432C97.6011 14.7236 97.068 14.5114 96.4164 14.5114C95.7573 14.5114 95.2217 14.7236 94.8071 15.1432C94.3924 15.5653 94.1851 16.1182 94.1851 16.8019C94.1851 17.4881 94.3924 18.041 94.8071 18.4606C95.2217 18.8827 95.7573 19.0925 96.4164 19.0925Z" fill="white"/>
<path d="M107.355 12.418C108.307 12.418 109.063 12.7388 109.616 13.3757C110.168 14.0075 110.445 14.8566 110.445 15.9229V20.9877H108.184V16.2783C108.184 15.0294 107.695 14.4024 106.723 14.4024C106.143 14.4024 105.686 14.5999 105.35 14.9948C105.015 15.3848 104.847 15.913 104.847 16.5844V20.9877H102.586V12.6154H104.136L104.58 13.6521C104.896 13.272 105.294 12.9709 105.775 12.7537C106.261 12.5315 106.787 12.418 107.355 12.418Z" fill="white"/>
<path d="M117.288 12.418C118.241 12.418 118.996 12.7388 119.549 13.3757C120.102 14.0075 120.378 14.8566 120.378 15.9229V20.9877H118.118V16.2783C118.118 15.0294 117.629 14.4024 116.656 14.4024C116.076 14.4024 115.62 14.5999 115.284 14.9948C114.948 15.3848 114.78 15.913 114.78 16.5844V20.9877H112.52V12.6154H114.07L114.514 13.6521C114.83 13.272 115.227 12.9709 115.709 12.7537C116.195 12.5315 116.721 12.418 117.288 12.418Z" fill="white"/>
<path d="M130.579 16.7723C130.579 16.9895 130.561 17.2116 130.529 17.4338H124.201C124.292 18.0064 124.519 18.4458 124.882 18.7469C125.242 19.0505 125.701 19.2011 126.254 19.2011C126.642 19.2011 126.99 19.1196 127.301 18.9542C127.609 18.7839 127.849 18.547 128.022 18.2434H130.401C130.09 19.1517 129.564 19.8774 128.821 20.4154C128.076 20.956 127.222 21.225 126.254 21.225C125.425 21.225 124.68 21.03 124.023 20.6425C123.371 20.255 122.853 19.7293 122.473 19.0628C122.098 18.3915 121.91 17.6386 121.91 16.8019C121.91 15.9676 122.098 15.2173 122.473 14.5509C122.853 13.8795 123.371 13.3538 124.023 12.9712C124.68 12.5837 125.425 12.3887 126.254 12.3887C127.108 12.3887 127.864 12.5911 128.515 12.9909C129.167 13.3858 129.673 13.9141 130.036 14.5706C130.396 15.2296 130.579 15.9627 130.579 16.7723ZM126.254 14.304C125.746 14.304 125.319 14.4472 124.971 14.7286C124.62 15.005 124.388 15.3901 124.27 15.8837H128.308C127.977 14.8322 127.293 14.304 126.254 14.304Z" fill="white"/>
<path d="M136.093 21.225C135.256 21.225 134.504 21.0276 133.832 20.6326C133.161 20.2377 132.63 19.7046 132.243 19.0332C131.853 18.3618 131.66 17.609 131.66 16.7723C131.66 15.938 131.853 15.1901 132.243 14.5311C132.63 13.8672 133.161 13.3439 133.832 12.9613C134.504 12.5812 135.264 12.3887 136.113 12.3887C136.829 12.3887 137.485 12.5318 138.078 12.8132C138.675 13.0971 139.174 13.4994 139.568 14.0177C139.968 14.5311 140.235 15.1309 140.368 15.8146H138.127C137.934 15.3999 137.663 15.0815 137.308 14.8569C136.952 14.6274 136.547 14.5114 136.093 14.5114C135.691 14.5114 135.326 14.615 134.997 14.8174C134.674 15.0149 134.417 15.2864 134.227 15.627C134.042 15.9701 133.951 16.3576 133.951 16.792C133.951 17.2215 134.042 17.609 134.227 17.9571C134.417 18.3075 134.674 18.584 134.997 18.7864C135.326 18.9913 135.691 19.0925 136.093 19.0925C136.56 19.0925 136.964 18.974 137.308 18.737C137.656 18.4951 137.93 18.1446 138.127 17.6905H140.398C140.264 18.389 139.998 19.0036 139.598 19.5367C139.196 20.0699 138.692 20.4845 138.087 20.7807C137.488 21.0769 136.824 21.225 136.093 21.225Z" fill="white"/>
<path d="M145.975 18.9738H147.002V20.9879H145.402C144.487 20.9879 143.763 20.7213 143.23 20.1881C142.697 19.655 142.431 18.9244 142.431 17.9963V14.4322H140.91V13.9484L144.227 10.4336H144.642V12.6155H146.952V14.4322H144.692V17.7001C144.692 18.1025 144.803 18.4159 145.027 18.6381C145.249 18.8627 145.565 18.9738 145.975 18.9738Z" fill="white"/>
<path d="M58.8131 36.9774L58.0529 34.9139H53.7285L52.9781 36.9774H50.5L54.7454 26.127H56.9668L61.3504 36.9774H58.8131ZM55.8808 28.9901L54.469 32.8702H57.3025L55.8808 28.9901Z" fill="white"/>
<path d="M67.667 28.7145V30.5903H65.5542V36.9782H63.2932V30.5903H61.832V28.7145H63.3031V27.9542C63.3031 27.1595 63.5228 26.5227 63.9646 26.0487C64.4114 25.5748 65.0753 25.3379 65.959 25.3379H67.6472V27.115H66.4032C65.796 27.115 65.4949 27.4186 65.4949 28.0234V28.7145H67.667Z" fill="white"/>
<path d="M73.275 28.5566H74.0254V30.6991H73.0479C72.4013 30.6991 71.9422 30.8521 71.6657 31.1532C71.3942 31.4494 71.2609 31.9406 71.2609 32.6243V36.9783H69V28.606H70.4513L70.8561 29.6328C71.4288 28.917 72.2334 28.5566 73.275 28.5566Z" fill="white"/>
<path d="M75.3203 27.4916V25.3887H77.5812V27.4916H75.3203ZM75.3203 36.9796V28.6073H77.5812V36.9796H75.3203Z" fill="white"/>
<path d="M83.6205 37.2153C82.7837 37.2153 82.0309 37.0178 81.3596 36.6229C80.6882 36.228 80.1575 35.6948 79.77 35.0234C79.38 34.3521 79.1875 33.5993 79.1875 32.7625C79.1875 31.9283 79.38 31.1804 79.77 30.5214C80.1575 29.8574 80.6882 29.3341 81.3596 28.9515C82.0309 28.5714 82.7912 28.3789 83.6402 28.3789C84.356 28.3789 85.0126 28.5221 85.605 28.8034C86.2023 29.0873 86.7009 29.4896 87.0958 30.008C87.4956 30.5214 87.7622 31.1211 87.8955 31.8048H85.6543C85.4618 31.3902 85.1903 31.0718 84.8349 30.8472C84.4794 30.6176 84.0746 30.5016 83.6205 30.5016C83.2182 30.5016 82.8529 30.6053 82.5246 30.8077C82.2012 31.0051 81.9445 31.2766 81.7545 31.6173C81.5694 31.9603 81.478 32.3479 81.478 32.7823C81.478 33.2117 81.5694 33.5993 81.7545 33.9473C81.9445 34.2978 82.2012 34.5742 82.5246 34.7766C82.8529 34.9815 83.2182 35.0827 83.6205 35.0827C84.087 35.0827 84.4918 34.9642 84.8349 34.7273C85.1829 34.4854 85.4569 34.1349 85.6543 33.6807H87.9251C87.7918 34.3792 87.5253 34.9938 87.1254 35.527C86.7231 36.0601 86.2196 36.4748 85.6148 36.771C85.015 37.0672 84.3511 37.2153 83.6205 37.2153Z" fill="white"/>
<path d="M96.2462 28.5961H97.9345V36.9586H96.1574L95.9698 36.2181C95.607 36.5291 95.1948 36.771 94.7357 36.9487C94.2741 37.1264 93.7805 37.2153 93.2547 37.2153C92.418 37.2153 91.6676 37.0203 91.0037 36.6328C90.3446 36.2452 89.8238 35.7195 89.4437 35.0531C89.0611 34.3817 88.8711 33.6264 88.8711 32.7823C88.8711 31.9406 89.0611 31.1878 89.4437 30.5214C89.8238 29.8574 90.3446 29.3341 91.0037 28.9515C91.6676 28.5714 92.418 28.3789 93.2547 28.3789C93.7928 28.3789 94.2938 28.4727 94.7554 28.6554C95.2219 28.8331 95.6366 29.0799 95.9994 29.3958L96.2462 28.5961ZM93.4423 35.0728C93.8767 35.0728 94.2642 34.9741 94.6073 34.7766C94.9553 34.5792 95.2293 34.3101 95.4268 33.967C95.6242 33.619 95.723 33.2241 95.723 32.7823C95.723 32.3479 95.6242 31.9579 95.4268 31.6074C95.2293 31.2594 94.9553 30.9854 94.6073 30.7879C94.2642 30.5855 93.8767 30.4819 93.4423 30.4819C93.0005 30.4819 92.608 30.5855 92.2674 30.7879C91.9243 30.9854 91.6553 31.2594 91.4578 31.6074C91.2604 31.9579 91.1616 32.3479 91.1616 32.7823C91.1616 33.2241 91.2604 33.6165 91.4578 33.9572C91.6553 34.3003 91.9243 34.5742 92.2674 34.7766C92.608 34.9741 93.0005 35.0728 93.4423 35.0728Z" fill="white"/>
</svg>
